<?xml version="1.0" encoding="UTF-8"?>
<svg xmlns="http://www.w3.org/2000/svg" xmlns:xlink="http://www.w3.org/1999/xlink" width="8px" height="8px" viewBox="0 0 8 8" version="1.1">
<g id="surface1">
<path style=" stroke:none;fill-rule:nonzero;fill:rgb(100%,100%,100%);fill-opacity:1;" d="M 2.820312 2.351562 L 5.648438 5.179688 L 4.496094 6.332031 L 6.667969 6.332031 C 6.851562 6.332031 7 6.484375 7 6.667969 C 7 6.851562 6.851562 7 6.667969 7 L 2.964844 7 C 2.832031 7 2.703125 6.949219 2.609375 6.855469 L 0.9375 5.179688 C 0.675781 4.917969 0.675781 4.496094 0.9375 4.234375 Z M 5.179688 0.9375 L 7.0625 2.820312 C 7.324219 3.082031 7.324219 3.503906 7.0625 3.765625 L 6.121094 4.707031 L 3.292969 1.878906 L 4.234375 0.9375 C 4.496094 0.675781 4.917969 0.675781 5.179688 0.9375 Z M 5.179688 0.9375 "/>
</g>
</svg>
