<!DOCTYPE svg PUBLIC "-//W3C//DTD SVG 1.1//EN" "http://www.w3.org/Graphics/SVG/1.1/DTD/svg11.dtd">
<!-- Uploaded to: SVG Repo, www.svgrepo.com, Transformed by: SVG Repo Mixer Tools -->
<svg fill="#6223b4" width="800px" height="800px" viewBox="-3.2 -3.2 38.40 38.40" version="1.1" xmlns="http://www.w3.org/2000/svg">
<g id="SVGRepo_bgCarrier" stroke-width="0">
<rect x="-3.2" y="-3.2" width="38.40" height="38.40" rx="9.6" fill="#b59fc45c" strokewidth="0"/>
</g>
<g id="SVGRepo_tracerCarrier" stroke-linecap="round" stroke-linejoin="round"/>
<g id="SVGRepo_iconCarrier"> <title>user-profiles</title> <path d="M0 26.016q0 2.496 1.76 4.224t4.256 1.76h12q2.464 0 4.224-1.76t1.76-4.224q-0.448-2.688-2.112-4.928t-4.096-3.552q2.208-2.368 2.208-5.536v-4q0-3.296-2.336-5.632t-5.664-2.368-5.664 2.368-2.336 5.632v4q0 3.168 2.208 5.536-2.4 1.344-4.064 3.552t-2.144 4.928zM4 26.016q0.672-2.592 2.944-4.288t5.056-1.696 5.056 1.696 2.944 4.288q0 0.832-0.576 1.44t-1.408 0.576h-12q-0.832 0-1.44-0.576t-0.576-1.44zM8 12.032v-4q0-1.664 1.184-2.848t2.816-1.152 2.816 1.152 1.184 2.848v4q0 1.664-1.184 2.816t-2.816 1.184-2.816-1.184-1.184-2.816zM18.208 0.224q0.896-0.224 1.792-0.224 3.328 0 5.664 2.368t2.336 5.632v4.032q0 3.168-2.208 5.504 2.4 1.344 4.096 3.584t2.112 4.896q0 2.496-1.76 4.256t-4.224 1.76h-2.784q1.888-1.632 2.496-4h0.288q0.8 0 1.408-0.576t0.576-1.44q-0.384-1.472-1.312-2.688t-2.336-2.048q-1.44-2.528-3.712-4.256 0.352-0.608 0.608-1.216 1.216-0.416 1.984-1.44t0.768-2.368v-4q0-1.312-0.768-2.336t-1.984-1.44q-0.96-2.336-3.040-4z"/> </g>
</svg>