<!DOCTYPE svg PUBLIC "-//W3C//DTD SVG 1.1//EN" "http://www.w3.org/Graphics/SVG/1.1/DTD/svg11.dtd">
<!-- Uploaded to: SVG Repo, www.svgrepo.com, Transformed by: SVG Repo Mixer Tools -->
<svg height="800px" width="800px" version="1.1" id="_x32_" xmlns="http://www.w3.org/2000/svg" xmlns:xlink="http://www.w3.org/1999/xlink" viewBox="0 0 512 512" xml:space="preserve" fill="#ffffff">
<g id="SVGRepo_bgCarrier" stroke-width="0"/>
<g id="SVGRepo_tracerCarrier" stroke-linecap="round" stroke-linejoin="round"/>
<g id="SVGRepo_iconCarrier"> <style type="text/css"> .st0{fill:#ae00ff;} </style> <g> <path class="st0" d="M475.068,376.295c-3.421-9.544-8.948-18.292-16.122-25.47l-94.824-94.819L456.12,164l9.275-9.278 l35.601-35.597c7.306-7.366,10.989-17.048,10.989-26.653c0-9.604-3.683-19.218-10.989-26.584l-54.88-54.883 c-14.741-14.672-38.564-14.672-53.24,0L357.279,46.61L256.002,147.887l-91.998-91.998l-9.343-9.347l-35.533-35.537h-0.069 c-14.677-14.672-38.431-14.672-53.172,0L11.009,65.888c-14.677,14.741-14.677,38.496,0,53.237l35.601,35.597l101.272,101.286 l-94.823,94.819c-7.178,7.238-12.705,15.925-16.126,25.538L1.662,474.408c-3.684,10.273-1.116,21.721,6.582,29.345 c7.7,7.709,19.148,10.273,29.35,6.586l98.116-35.271c9.54-3.422,18.292-8.954,25.465-16.123l94.828-94.828l94.828,94.828 c7.169,7.169,15.924,12.7,25.465,16.123l98.116,35.271c10.265,3.687,21.649,1.123,29.35-6.586 c7.697-7.692,10.264-19.14,6.577-29.345L475.068,376.295z M411.501,29.63c4.408-4.408,11.513-4.408,15.989,0l54.883,54.875 c4.408,4.416,4.408,11.516,0,16.002l-26.254,26.249l-1.32,1.321L383.927,57.2L411.501,29.63z M29.63,100.507 c-4.408-4.417-4.408-11.518,0-16.002L84.509,29.63c4.412-4.408,11.518-4.408,15.993,0l26.254,26.258l1.321,1.312l-70.876,70.877 L29.63,100.507z M66.483,137.416l70.936-70.868l99.956,99.956l-70.872,70.877L66.483,137.416z M126.757,450.328l-62.447,22.434 l-25.07-25.006l22.437-62.515c0.198-0.455,0.395-0.918,0.592-1.312l65.809,65.799C127.679,449.934,127.219,450.191,126.757,450.328 z M142.553,440.32c-0.858,0.858-1.844,1.715-2.765,2.504l-70.612-70.61c0.794-0.926,1.647-1.904,2.504-2.762l94.824-94.828 l18.626-18.617l70.872-70.886l18.622-18.617l99.96-100.024l70.872,70.936l-99.96,99.965l-18.622,18.626l-70.872,70.868 l-18.626,18.617L142.553,440.32z M372.217,442.824c-0.922-0.858-1.912-1.646-2.765-2.504l-94.828-94.828l0,0l70.872-70.868 l94.829,94.828c0.857,0.858,1.71,1.776,2.499,2.762L372.217,442.824z M447.695,472.761l-62.451-22.434 c-0.463-0.198-0.922-0.394-1.38-0.6l65.873-65.869c0.197,0.464,0.394,0.926,0.587,1.381l22.442,62.456L447.695,472.761z"/> </g> </g>
</svg>